Coordinates
version=1
nRows=11
nColumns=32
inDegrees=yes

Units are S.I. units (second, meters, Newtons, ...)
If the header above contains a line with 'inDegrees', this indicates whether rotational values are in degrees (yes) or radians (no).

endheader
time	pelvis_tilt	pelvis_list	pelvis_rotation	pelvis_tx	pelvis_ty	pelvis_tz	hip_flexion_r	hip_adduction_r	hip_rotation_r	knee_angle_r	knee_adduction_r	med_cond_adduction_r	lat_cond_adduction_r	patella_r_constrained_knee_angle	ankle_angle_r	subtalar_angle_r	mtp_angle_r	hip_flexion_l	hip_adduction_l	hip_rotation_l	knee_angle_l	knee_adduction_l	med_cond_adduction_l	lat_cond_adduction_l	patella_l_constrained_knee_angle	ankle_angle_l	subtalar_angle_l	mtp_angle_l	lumbar_extension	lumbar_bending	lumbar_rotation
      1.88000000	      0.86119567	    -21.48073731	     99.32723042	      0.21013335	      0.87316608	      2.72441582	     39.00309661	      1.84087538	    -19.14926846	     -1.31076200	      0.00000000	     -0.00000000	      0.00000000	     -0.02287711	    -26.96312420	     19.37247647	     -0.00000000	     36.49787798	      6.41167155	    -11.62420564	    -19.37054999	     -0.00000000	      0.00000000	     -0.00000000	     -0.33807988	      3.68660075	      5.14238380	     -0.00000000	      0.00000000	      0.00000000	     -0.00000000
      1.88500000	      0.86018523	    -21.49667068	     99.33073102	      0.21019926	      0.87315198	      2.72447794	     39.02131277	      1.84730850	    -19.20746558	     -1.30281383	     -0.00000000	     -0.00000000	      0.00000000	     -0.02273839	    -27.00858690	     19.37618034	     -0.00000000	     36.53399184	      6.41651970	    -11.62933060	    -19.38475822	     -0.00000000	      0.00000000	     -0.00000000	     -0.33832786	      3.68753886	      5.16084623	     -0.00000000	      0.00000000	      0.00000000	     -0.00000000
      1.89000000	      0.85195417	    -21.51433594	     99.34551156	      0.21026082	      0.87314136	      2.72456682	     39.04632699	      1.84070465	    -19.31659235	     -1.32028602	      0.00000000	     -0.00000000	      0.00000000	     -0.02304334	    -26.95825027	     19.38496790	     -0.00000000	     36.57011734	      6.44391383	    -11.60038849	    -19.38631983	      0.00000000	      0.00000000	     -0.00000000	     -0.33835511	      3.65781066	      5.13081653	      0.00000000	     -0.00000000	      0.00000000	      0.00000000
      1.89500000	      0.83481169	    -21.53588458	     99.35361597	      0.21031257	      0.87311987	      2.72469259	     39.07660707	      1.82738698	    -19.41312008	     -1.34517787	     -0.00000000	      0.00000000	     -0.00000000	     -0.02347778	    -26.87835118	     19.39794306	     -0.00000000	     36.61864216	      6.48131763	    -11.56562078	    -19.40323212	      0.00000000	     -0.00000000	      0.00000000	     -0.33865029	      3.64537462	      5.06905628	     -0.00000000	     -0.00000000	     -0.00000000	      0.00000000
      1.90000000	      0.82401843	    -21.54799759	     99.32962670	      0.21050540	      0.87313059	      2.72480679	     39.08282360	      1.85658096	    -19.51211478	     -1.30256674	      0.00000000	     -0.00000000	      0.00000000	     -0.02273408	    -27.13585814	     19.39720248	     -0.00000000	     36.66789026	      6.46532104	    -11.65797663	    -19.43243217	      0.00000000	      0.00000000	     -0.00000000	     -0.33915992	      3.66661918	      5.19696514	      0.00000000	     -0.00000000	     -0.00000000	      0.00000000
      1.90500000	      0.83075310	    -21.59766502	     99.35979082	      0.21060497	      0.87307806	      2.72499238	     39.14456399	      1.85978613	    -19.70557088	     -1.31750165	     -0.00000000	     -0.00000000	      0.00000000	     -0.02299474	    -27.18289582	     19.40669511	      0.00000000	     36.76466083	      6.48907613	    -11.62676961	    -19.45982753	      0.00000000	     -0.00000000	     -0.00000000	     -0.33963806	      3.64380466	      5.19046280	     -0.00000000	     -0.00000000	     -0.00000000	      0.00000000
      1.91000000	      0.82809950	    -21.63221489	     99.36097531	      0.21077824	      0.87305489	      2.72519784	     39.18385457	      1.87998376	    -19.87698528	     -1.30824472	      0.00000000	     -0.00000000	      0.00000000	     -0.02283318	    -27.35028999	     19.41293170	      0.00000000	     36.85094605	      6.49686039	    -11.65329918	    -19.49212051	     -0.00000000	      0.00000000	     -0.00000000	     -0.34020168	      3.64017305	      5.23400230	     -0.00000000	     -0.00000000	      0.00000000	      0.00000000
      1.91500000	      0.83286976	    -21.66576922	     99.35778125	      0.21097418	      0.87303048	      2.72543106	     39.21982759	      1.91378010	    -20.04150284	     -1.29014139	      0.00000000	      0.00000000	     -0.00000000	     -0.02251722	    -27.55184871	     19.41967168	      0.00000000	     36.94332763	      6.49557559	    -11.67983206	    -19.52927903	      0.00000000	     -0.00000000	      0.00000000	     -0.34085022	      3.64295219	      5.27242218	      0.00000000	     -0.00000000	      0.00000000	      0.00000000
      1.92000000	      0.81442934	    -21.68928790	     99.37315405	      0.21112442	      0.87303428	      2.72570266	     39.25495396	      1.90909346	    -20.29927011	     -1.33460331	      0.00000000	     -0.00000000	      0.00000000	     -0.02329322	    -27.55631733	     19.43413418	      0.00000000	     37.01557244	      6.53975765	    -11.65884469	    -19.54440689	     -0.00000000	      0.00000000	     -0.00000000	     -0.34111425	      3.60312824	      5.23649216	      0.00000000	     -0.00000000	      0.00000000	      0.00000000
      1.92500000	      0.81155942	    -21.74076818	     99.36453617	      0.21133215	      0.87298198	      2.72599095	     39.31036977	      1.93773252	    -20.51003516	     -1.33190413	      0.00000000	      0.00000000	     -0.00000000	     -0.02324611	    -27.78123903	     19.44003346	     -0.00000000	     37.13615866	      6.54475552	    -11.70865557	    -19.59440843	      0.00000000	      0.00000000	     -0.00000000	     -0.34198694	      3.59534834	      5.27638090	     -0.00000000	     -0.00000000	      0.00000000	      0.00000000
      1.93000000	      0.79149570	    -21.74904053	     99.36464886	      0.21147209	      0.87301336	      2.72627871	     39.32460441	      1.93789327	    -20.76012101	     -1.38054278	      0.00000000	     -0.00000000	      0.00000000	     -0.02409502	    -27.82711624	     19.45160303	      0.00000000	     37.18282332	      6.58008679	    -11.69958996	    -19.59410966	     -0.00000000	     -0.00000000	      0.00000000	     -0.34198173	      3.55601881	      5.25240065	      0.00000000	     -0.00000000	      0.00000000	     -0.00000000
